# xmcd
#
# Track frame offsets: 
#        150
#        15686
#        32655
#        48810
#        63866
#        78893
#        97645
#        112395
#        128434
#        144828
#        165473
#
# Disc length: 2492 seconds
#
# Revision: 0
# Processed by: cddbd v1.5.2PL0 Copyright (c) Steve Scherf et al.
# Submitted via: ExactAudioCopy v1.0b4
#
DISCID=7709ba0b
DTITLE=John Lee Hooker - Stomp Boogie (DLP_LP 1)
DYEAR=1900
DGENRE=Blues
TTITLE0=I Brought You A Brand New Home
TTITLE1=I Believe I' ll Loose My Mind
TTITLE2=Teasin' Me
TTITLE3=My Cryin' Days Are Over
TTITLE4=Sittin' Here Thinkin'
TTITLE5=Mean Misteatin'
TTITLE6=How Long
TTITLE7=How Many More Years
TTITLE8=C C Rider
TTITLE9=Sad And Lonesome
TTITLE10=Can' t You See What You're Doin' To Me
EXTD=
EXTT0=
EXTT1=
EXTT2=
EXTT3=
EXTT4=
EXTT5=
EXTT6=
EXTT7=
EXTT8=
EXTT9=
EXTT10=
PLAYORDER=
